ply
format ascii 1.0
comment created by gply, a Houdini tool.
comment converted from .[b]geo
comment for more information about Houdini, try:
comment www.sidefx.com
element vertex 279
property float x
property float y
property float z
property float lam
property int pin
property float mu
property float idx_x
property float idx_y
property float idx_z
property float mass
element face 0
property list uchar int vertex_indices
end_header
0 0 0 100000 1 100000 0 0 0 0.125 
0 0 0.100000001 100000 1 100000 0 0 1 0.125 
0 0.100000001 0 100000 1 100000 0 1 0 0.125 
0 0.100000001 0.100000001 100000 1 100000 0 1 1 0.125 
0.100000001 0 0 100000 1 100000 1 0 0 0.125 
0.100000001 0 0.100000001 100000 1 100000 1 0 1 0.125 
0.100000001 0.100000001 0 100000 1 100000 1 1 0 0.125 
0.100000001 0.100000001 0.100000001 100000 1 100000 1 1 1 0.125 
0.200000003 0 0 100000 0 100000 2 0 0 0.125 
0.200000003 0 0.100000001 100000 0 100000 2 0 1 0.125 
0.200000003 0.100000001 0 100000 0 100000 2 1 0 0.125 
0.200000003 0.100000001 0.100000001 100000 0 100000 2 1 1 0.125 
0.300000012 0 0 100000 0 100000 3 0 0 0.125 
0.300000012 0 0.100000001 100000 0 100000 3 0 1 0.125 
0.300000012 0.100000001 0 100000 0 100000 3 1 0 0.125 
0.300000012 0.100000001 0.100000001 100000 0 100000 3 1 1 0.125 
0.400000006 0 0 100000 0 100000 4 0 0 0.125 
0.400000006 0 0.100000001 100000 0 100000 4 0 1 0.125 
0.400000006 0.100000001 0 100000 0 100000 4 1 0 0.125 
0.400000006 0.100000001 0.100000001 100000 0 100000 4 1 1 0.125 
0.5 0 0 100000 0 100000 5 0 0 0.125 
0.5 0 0.100000001 100000 0 100000 5 0 1 0.125 
0.5 0.100000001 0 100000 0 100000 5 1 0 0.125 
0.5 0.100000001 0.100000001 100000 0 100000 5 1 1 0.125 
0.600000024 0 0 100000 0 100000 6 0 0 0.125 
0.600000024 0 0.100000001 100000 0 100000 6 0 1 0.125 
0.600000024 0.100000001 0 100000 0 100000 6 1 0 0.125 
0.600000024 0.100000001 0.100000001 100000 0 100000 6 1 1 0.125 
0.699999988 0 0 100000 0 100000 7 0 0 0.125 
0.699999988 0 0.100000001 100000 0 100000 7 0 1 0.125 
0.699999988 0.100000001 0 100000 0 100000 7 1 0 0.125 
0.699999988 0.100000001 0.100000001 100000 0 100000 7 1 1 0.125 
0.800000012 0 0 100000 0 100000 8 0 0 0.125 
0.800000012 0 0.100000001 100000 0 100000 8 0 1 0.125 
0.800000012 0.100000001 0 100000 0 100000 8 1 0 0.125 
0.800000012 0.100000001 0.100000001 100000 0 100000 8 1 1 0.125 
0.900000036 0 0 100000 0 100000 9 0 0 0.125 
0.900000036 0 0.100000001 100000 0 100000 9 0 1 0.125 
0.900000036 0.100000001 0 100000 0 100000 9 1 0 0.125 
0.900000036 0.100000001 0.100000001 100000 0 100000 9 1 1 0.125 
1 0 0 100000 0 100000 10 0 0 0.125 
1 0 0.100000001 100000 0 100000 10 0 1 0.125 
1 0.100000001 0 100000 0 100000 10 1 0 0.125 
1 0.100000001 0.100000001 100000 0 100000 10 1 1 0.125 
1.10000002 0 0 100000 0 100000 11 0 0 0.125 
1.10000002 0 0.100000001 100000 0 100000 11 0 1 0.125 
1.10000002 0.100000001 0 100000 0 100000 11 1 0 0.125 
1.10000002 0.100000001 0.100000001 100000 0 100000 11 1 1 0.125 
1.20000005 0 0 100000 0 100000 12 0 0 0.125 
1.20000005 0 0.100000001 100000 0 100000 12 0 1 0.125 
1.20000005 0.100000001 0 100000 0 100000 12 1 0 0.125 
1.20000005 0.100000001 0.100000001 100000 0 100000 12 1 1 0.125 
1.30000007 0 0 100000 0 100000 13.000001 0 0 0.125 
1.30000007 0 0.100000001 100000 0 100000 13.000001 0 1 0.125 
1.30000007 0.100000001 0 100000 0 100000 13.000001 1 0 0.125 
1.30000007 0.100000001 0.100000001 100000 0 100000 13.000001 1 1 0.125 
1.39999998 0 0 100000 0 100000 14 0 0 0.125 
1.39999998 0 0.100000001 100000 0 100000 14 0 1 0.125 
1.39999998 0.100000001 0 100000 0 100000 14 1 0 0.125 
1.39999998 0.100000001 0.100000001 100000 0 100000 14 1 1 0.125 
1.5 0 0 100000 0 100000 15 0 0 0.125 
1.5 0 0.100000001 100000 0 100000 15 0 1 0.125 
1.5 0.100000001 0 100000 0 100000 15 1 0 0.125 
1.5 0.100000001 0.100000001 100000 0 100000 15 1 1 0.125 
1.60000002 0 0 100000 0 100000 16 0 0 0.125 
1.60000002 0 0.100000001 100000 0 100000 16 0 1 0.125 
1.60000002 0.100000001 0 100000 0 100000 16 1 0 0.125 
1.60000002 0.100000001 0.100000001 100000 0 100000 16 1 1 0.125 
1.70000005 0 0 100000 0 100000 17 0 0 0.125 
1.70000005 0 0.100000001 100000 0 100000 17 0 1 0.125 
1.70000005 0.100000001 0 100000 0 100000 17 1 0 0.125 
1.70000005 0.100000001 0.100000001 100000 0 100000 17 1 1 0.125 
1.80000007 0 0 100000 0 100000 18 0 0 0.125 
1.80000007 0 0.100000001 100000 0 100000 18 0 1 0.125 
1.80000007 0.100000001 0 100000 0 100000 18 1 0 0.125 
1.80000007 0.100000001 0.100000001 100000 0 100000 18 1 1 0.125 
1.89999998 0 0 100000 0 100000 19 0 0 0.125 
1.89999998 0 0.100000001 100000 0 100000 19 0 1 0.125 
1.89999998 0.100000001 0 100000 0 100000 19 1 0 0.125 
1.89999998 0.100000001 0.100000001 100000 0 100000 19 1 1 0.125 
2 0 0 100000 0 100000 20 0 0 0.125 
2 0 0.100000001 100000 0 100000 20 0 1 0.125 
2 0.100000001 0 100000 0 100000 20 1 0 0.125 
2 0.100000001 0.100000001 100000 0 100000 20 1 1 0.125 
2.10000014 0 0 100000 0 100000 21.0000019 0 0 0.125 
2.10000014 0 0.100000001 100000 0 100000 21.0000019 0 1 0.125 
2.10000014 0.100000001 0 100000 0 100000 21.0000019 1 0 0.125 
2.10000014 0.100000001 0.100000001 100000 0 100000 21.0000019 1 1 0.125 
2.20000005 0 0 100000 0 100000 22 0 0 0.125 
2.20000005 0 0.100000001 100000 0 100000 22 0 1 0.125 
2.20000005 0.100000001 0 100000 0 100000 22 1 0 0.125 
2.20000005 0.100000001 0.100000001 100000 0 100000 22 1 1 0.125 
2.29999995 0 0 100000 0 100000 23 0 0 0.125 
2.29999995 0 0.100000001 100000 0 100000 23 0 1 0.125 
2.29999995 0.100000001 0 100000 0 100000 23 1 0 0.125 
2.29999995 0.100000001 0.100000001 100000 0 100000 23 1 1 0.125 
2.4000001 0 0 100000 0 100000 24 0 0 0.125 
2.4000001 0 0.100000001 100000 0 100000 24 0 1 0.125 
2.4000001 0.100000001 0 100000 0 100000 24 1 0 0.125 
2.4000001 0.100000001 0.100000001 100000 0 100000 24 1 1 0.125 
2.5 0 0 100000 0 100000 25 0 0 0.125 
2.5 0 0.100000001 100000 0 100000 25 0 1 0.125 
2.5 0.100000001 0 100000 0 100000 25 1 0 0.125 
2.5 0.100000001 0.100000001 100000 0 100000 25 1 1 0.125 
2.60000014 0 0 100000 0 100000 26.0000019 0 0 0.125 
2.60000014 0 0.100000001 100000 0 100000 26.0000019 0 1 0.125 
2.60000014 0.100000001 0 100000 0 100000 26.0000019 1 0 0.125 
2.60000014 0.100000001 0.100000001 100000 0 100000 26.0000019 1 1 0.125 
2.70000005 0 0 100000 0 100000 27 0 0 0.125 
2.70000005 0 0.100000001 100000 0 100000 27 0 1 0.125 
2.70000005 0.100000001 0 100000 0 100000 27 1 0 0.125 
2.70000005 0.100000001 0.100000001 100000 0 100000 27 1 1 0.125 
2.79999995 0 0 100000 0 100000 28 0 0 0.125 
2.79999995 0 0.100000001 100000 0 100000 28 0 1 0.125 
2.79999995 0.100000001 0 100000 0 100000 28 1 0 0.125 
2.79999995 0.100000001 0.100000001 100000 0 100000 28 1 1 0.125 
2.9000001 0 0 100000 0 100000 29 0 0 0.125 
2.9000001 0 0.100000001 100000 0 100000 29 0 1 0.125 
2.9000001 0.100000001 0 100000 0 100000 29 1 0 0.125 
2.9000001 0.100000001 0.100000001 100000 0 100000 29 1 1 0.125 
3 0 0 100000 0 100000 30 0 0 0.125 
3 0 0.100000001 100000 0 100000 30 0 1 0.125 
3 0.100000001 0 100000 0 100000 30 1 0 0.125 
3 0.100000001 0.100000001 100000 0 100000 30 1 1 0.125 
0 0.200000003 0 100000 1 100000 0 2 0 0.125 
0 0.200000003 0.100000001 100000 1 100000 0 2 1 0.125 
0.100000001 0.200000003 0 100000 1 100000 1 2 0 0.125 
0.100000001 0.200000003 0.100000001 100000 1 100000 1 2 1 0.125 
0.200000003 0.200000003 0 100000 0 100000 2 2 0 0.125 
0.200000003 0.200000003 0.100000001 100000 0 100000 2 2 1 0.125 
0.300000012 0.200000003 0 100000 0 100000 3 2 0 0.125 
0.300000012 0.200000003 0.100000001 100000 0 100000 3 2 1 0.125 
0.400000006 0.200000003 0 100000 0 100000 4 2 0 0.125 
0.400000006 0.200000003 0.100000001 100000 0 100000 4 2 1 0.125 
0.5 0.200000003 0 100000 0 100000 5 2 0 0.125 
0.5 0.200000003 0.100000001 100000 0 100000 5 2 1 0.125 
0.600000024 0.200000003 0 100000 0 100000 6 2 0 0.125 
0.600000024 0.200000003 0.100000001 100000 0 100000 6 2 1 0.125 
0.699999988 0.200000003 0 100000 0 100000 7 2 0 0.125 
0.699999988 0.200000003 0.100000001 100000 0 100000 7 2 1 0.125 
0.800000012 0.200000003 0 100000 0 100000 8 2 0 0.125 
0.800000012 0.200000003 0.100000001 100000 0 100000 8 2 1 0.125 
0.900000036 0.200000003 0 100000 0 100000 9 2 0 0.125 
0.900000036 0.200000003 0.100000001 100000 0 100000 9 2 1 0.125 
1 0.200000003 0 100000 0 100000 10 2 0 0.125 
1 0.200000003 0.100000001 100000 0 100000 10 2 1 0.125 
1.10000002 0.200000003 0 100000 0 100000 11 2 0 0.125 
1.10000002 0.200000003 0.100000001 100000 0 100000 11 2 1 0.125 
1.20000005 0.200000003 0 100000 0 100000 12 2 0 0.125 
1.20000005 0.200000003 0.100000001 100000 0 100000 12 2 1 0.125 
1.30000007 0.200000003 0 100000 0 100000 13.000001 2 0 0.125 
1.30000007 0.200000003 0.100000001 100000 0 100000 13.000001 2 1 0.125 
1.39999998 0.200000003 0 100000 0 100000 14 2 0 0.125 
1.39999998 0.200000003 0.100000001 100000 0 100000 14 2 1 0.125 
1.5 0.200000003 0 100000 0 100000 15 2 0 0.125 
1.5 0.200000003 0.100000001 100000 0 100000 15 2 1 0.125 
1.60000002 0.200000003 0 100000 0 100000 16 2 0 0.125 
1.60000002 0.200000003 0.100000001 100000 0 100000 16 2 1 0.125 
1.70000005 0.200000003 0 100000 0 100000 17 2 0 0.125 
1.70000005 0.200000003 0.100000001 100000 0 100000 17 2 1 0.125 
1.80000007 0.200000003 0 100000 0 100000 18 2 0 0.125 
1.80000007 0.200000003 0.100000001 100000 0 100000 18 2 1 0.125 
1.89999998 0.200000003 0 100000 0 100000 19 2 0 0.125 
1.89999998 0.200000003 0.100000001 100000 0 100000 19 2 1 0.125 
2 0.200000003 0 100000 0 100000 20 2 0 0.125 
2 0.200000003 0.100000001 100000 0 100000 20 2 1 0.125 
2.10000014 0.200000003 0 100000 0 100000 21.0000019 2 0 0.125 
2.10000014 0.200000003 0.100000001 100000 0 100000 21.0000019 2 1 0.125 
2.20000005 0.200000003 0 100000 0 100000 22 2 0 0.125 
2.20000005 0.200000003 0.100000001 100000 0 100000 22 2 1 0.125 
2.29999995 0.200000003 0 100000 0 100000 23 2 0 0.125 
2.29999995 0.200000003 0.100000001 100000 0 100000 23 2 1 0.125 
2.4000001 0.200000003 0 100000 0 100000 24 2 0 0.125 
2.4000001 0.200000003 0.100000001 100000 0 100000 24 2 1 0.125 
2.5 0.200000003 0 100000 0 100000 25 2 0 0.125 
2.5 0.200000003 0.100000001 100000 0 100000 25 2 1 0.125 
2.60000014 0.200000003 0 100000 0 100000 26.0000019 2 0 0.125 
2.60000014 0.200000003 0.100000001 100000 0 100000 26.0000019 2 1 0.125 
2.70000005 0.200000003 0 100000 0 100000 27 2 0 0.125 
2.70000005 0.200000003 0.100000001 100000 0 100000 27 2 1 0.125 
2.79999995 0.200000003 0 100000 0 100000 28 2 0 0.125 
2.79999995 0.200000003 0.100000001 100000 0 100000 28 2 1 0.125 
2.9000001 0.200000003 0 100000 0 100000 29 2 0 0.125 
2.9000001 0.200000003 0.100000001 100000 0 100000 29 2 1 0.125 
3 0.200000003 0 100000 0 100000 30 2 0 0.125 
3 0.200000003 0.100000001 100000 0 100000 30 2 1 0.125 
0 0 0.200000003 100000 1 100000 0 0 2 0.125 
0 0.100000001 0.200000003 100000 1 100000 0 1 2 0.125 
0.100000001 0 0.200000003 100000 1 100000 1 0 2 0.125 
0.100000001 0.100000001 0.200000003 100000 1 100000 1 1 2 0.125 
0.200000003 0 0.200000003 100000 0 100000 2 0 2 0.125 
0.200000003 0.100000001 0.200000003 100000 0 100000 2 1 2 0.125 
0.300000012 0 0.200000003 100000 0 100000 3 0 2 0.125 
0.300000012 0.100000001 0.200000003 100000 0 100000 3 1 2 0.125 
0.400000006 0 0.200000003 100000 0 100000 4 0 2 0.125 
0.400000006 0.100000001 0.200000003 100000 0 100000 4 1 2 0.125 
0.5 0 0.200000003 100000 0 100000 5 0 2 0.125 
0.5 0.100000001 0.200000003 100000 0 100000 5 1 2 0.125 
0.600000024 0 0.200000003 100000 0 100000 6 0 2 0.125 
0.600000024 0.100000001 0.200000003 100000 0 100000 6 1 2 0.125 
0.699999988 0 0.200000003 100000 0 100000 7 0 2 0.125 
0.699999988 0.100000001 0.200000003 100000 0 100000 7 1 2 0.125 
0.800000012 0 0.200000003 100000 0 100000 8 0 2 0.125 
0.800000012 0.100000001 0.200000003 100000 0 100000 8 1 2 0.125 
0.900000036 0 0.200000003 100000 0 100000 9 0 2 0.125 
0.900000036 0.100000001 0.200000003 100000 0 100000 9 1 2 0.125 
1 0 0.200000003 100000 0 100000 10 0 2 0.125 
1 0.100000001 0.200000003 100000 0 100000 10 1 2 0.125 
1.10000002 0 0.200000003 100000 0 100000 11 0 2 0.125 
1.10000002 0.100000001 0.200000003 100000 0 100000 11 1 2 0.125 
1.20000005 0 0.200000003 100000 0 100000 12 0 2 0.125 
1.20000005 0.100000001 0.200000003 100000 0 100000 12 1 2 0.125 
1.30000007 0 0.200000003 100000 0 100000 13.000001 0 2 0.125 
1.30000007 0.100000001 0.200000003 100000 0 100000 13.000001 1 2 0.125 
1.39999998 0 0.200000003 100000 0 100000 14 0 2 0.125 
1.39999998 0.100000001 0.200000003 100000 0 100000 14 1 2 0.125 
1.5 0 0.200000003 100000 0 100000 15 0 2 0.125 
1.5 0.100000001 0.200000003 100000 0 100000 15 1 2 0.125 
1.60000002 0 0.200000003 100000 0 100000 16 0 2 0.125 
1.60000002 0.100000001 0.200000003 100000 0 100000 16 1 2 0.125 
1.70000005 0 0.200000003 100000 0 100000 17 0 2 0.125 
1.70000005 0.100000001 0.200000003 100000 0 100000 17 1 2 0.125 
1.80000007 0 0.200000003 100000 0 100000 18 0 2 0.125 
1.80000007 0.100000001 0.200000003 100000 0 100000 18 1 2 0.125 
1.89999998 0 0.200000003 100000 0 100000 19 0 2 0.125 
1.89999998 0.100000001 0.200000003 100000 0 100000 19 1 2 0.125 
2 0 0.200000003 100000 0 100000 20 0 2 0.125 
2 0.100000001 0.200000003 100000 0 100000 20 1 2 0.125 
2.10000014 0 0.200000003 100000 0 100000 21.0000019 0 2 0.125 
2.10000014 0.100000001 0.200000003 100000 0 100000 21.0000019 1 2 0.125 
2.20000005 0 0.200000003 100000 0 100000 22 0 2 0.125 
2.20000005 0.100000001 0.200000003 100000 0 100000 22 1 2 0.125 
2.29999995 0 0.200000003 100000 0 100000 23 0 2 0.125 
2.29999995 0.100000001 0.200000003 100000 0 100000 23 1 2 0.125 
2.4000001 0 0.200000003 100000 0 100000 24 0 2 0.125 
2.4000001 0.100000001 0.200000003 100000 0 100000 24 1 2 0.125 
2.5 0 0.200000003 100000 0 100000 25 0 2 0.125 
2.5 0.100000001 0.200000003 100000 0 100000 25 1 2 0.125 
2.60000014 0 0.200000003 100000 0 100000 26.0000019 0 2 0.125 
2.60000014 0.100000001 0.200000003 100000 0 100000 26.0000019 1 2 0.125 
2.70000005 0 0.200000003 100000 0 100000 27 0 2 0.125 
2.70000005 0.100000001 0.200000003 100000 0 100000 27 1 2 0.125 
2.79999995 0 0.200000003 100000 0 100000 28 0 2 0.125 
2.79999995 0.100000001 0.200000003 100000 0 100000 28 1 2 0.125 
2.9000001 0 0.200000003 100000 0 100000 29 0 2 0.125 
2.9000001 0.100000001 0.200000003 100000 0 100000 29 1 2 0.125 
3 0 0.200000003 100000 0 100000 30 0 2 0.125 
3 0.100000001 0.200000003 100000 0 100000 30 1 2 0.125 
0 0.200000003 0.200000003 100000 1 100000 0 2 2 0.125 
0.100000001 0.200000003 0.200000003 100000 1 100000 1 2 2 0.125 
0.200000003 0.200000003 0.200000003 100000 0 100000 2 2 2 0.125 
0.300000012 0.200000003 0.200000003 100000 0 100000 3 2 2 0.125 
0.400000006 0.200000003 0.200000003 100000 0 100000 4 2 2 0.125 
0.5 0.200000003 0.200000003 100000 0 100000 5 2 2 0.125 
0.600000024 0.200000003 0.200000003 100000 0 100000 6 2 2 0.125 
0.699999988 0.200000003 0.200000003 100000 0 100000 7 2 2 0.125 
0.800000012 0.200000003 0.200000003 100000 0 100000 8 2 2 0.125 
0.900000036 0.200000003 0.200000003 100000 0 100000 9 2 2 0.125 
1 0.200000003 0.200000003 100000 0 100000 10 2 2 0.125 
1.10000002 0.200000003 0.200000003 100000 0 100000 11 2 2 0.125 
1.20000005 0.200000003 0.200000003 100000 0 100000 12 2 2 0.125 
1.30000007 0.200000003 0.200000003 100000 0 100000 13.000001 2 2 0.125 
1.39999998 0.200000003 0.200000003 100000 0 100000 14 2 2 0.125 
1.5 0.200000003 0.200000003 100000 0 100000 15 2 2 0.125 
1.60000002 0.200000003 0.200000003 100000 0 100000 16 2 2 0.125 
1.70000005 0.200000003 0.200000003 100000 0 100000 17 2 2 0.125 
1.80000007 0.200000003 0.200000003 100000 0 100000 18 2 2 0.125 
1.89999998 0.200000003 0.200000003 100000 0 100000 19 2 2 0.125 
2 0.200000003 0.200000003 100000 0 100000 20 2 2 0.125 
2.10000014 0.200000003 0.200000003 100000 0 100000 21.0000019 2 2 0.125 
2.20000005 0.200000003 0.200000003 100000 0 100000 22 2 2 0.125 
2.29999995 0.200000003 0.200000003 100000 0 100000 23 2 2 0.125 
2.4000001 0.200000003 0.200000003 100000 0 100000 24 2 2 0.125 
2.5 0.200000003 0.200000003 100000 0 100000 25 2 2 0.125 
2.60000014 0.200000003 0.200000003 100000 0 100000 26.0000019 2 2 0.125 
2.70000005 0.200000003 0.200000003 100000 0 100000 27 2 2 0.125 
2.79999995 0.200000003 0.200000003 100000 0 100000 28 2 2 0.125 
2.9000001 0.200000003 0.200000003 100000 0 100000 29 2 2 0.125 
3 0.200000003 0.200000003 100000 0 100000 30 2 2 0.125 
