ply
format ascii 1.0
comment created by gply, a Houdini tool.
comment converted from .[b]geo
comment for more information about Houdini, try:
comment www.sidefx.com
element vertex 549
property float x
property float y
property float z
property int pin
property float lam
property float mu
property float mass
element face 0
property list uchar int vertex_indices
end_header
0.0500000007 0.0500000007 0.0500000007 1 200000 200000 0.00999999978 
0.0500000007 0.0500000007 0.100000001 1 200000 200000 0.00999999978 
0.0500000007 0.100000001 0.0500000007 1 200000 200000 0.00999999978 
0.0500000007 0.100000001 0.100000001 1 200000 200000 0.00999999978 
0.100000001 0.0500000007 0.0500000007 1 200000 200000 0.00999999978 
0.100000001 0.0500000007 0.100000001 1 200000 200000 0.00999999978 
0.100000001 0.100000001 0.0500000007 1 200000 200000 0.00999999978 
0.100000001 0.100000001 0.100000001 1 200000 200000 0.00999999978 
0.150000006 0.0500000007 0.0500000007 1 200000 200000 0.00999999978 
0.150000006 0.0500000007 0.100000001 1 200000 200000 0.00999999978 
0.150000006 0.100000001 0.0500000007 1 200000 200000 0.00999999978 
0.150000006 0.100000001 0.100000001 1 200000 200000 0.00999999978 
0.200000003 0.0500000007 0.0500000007 0 200000 200000 0.00999999978 
0.200000003 0.0500000007 0.100000001 0 200000 200000 0.00999999978 
0.200000003 0.100000001 0.0500000007 0 200000 200000 0.00999999978 
0.200000003 0.100000001 0.100000001 0 200000 200000 0.00999999978 
0.25 0.0500000007 0.0500000007 0 200000 200000 0.00999999978 
0.25 0.0500000007 0.100000001 0 200000 200000 0.00999999978 
0.25 0.100000001 0.0500000007 0 200000 200000 0.00999999978 
0.25 0.100000001 0.100000001 0 200000 200000 0.00999999978 
0.300000012 0.0500000007 0.0500000007 0 200000 200000 0.00999999978 
0.300000012 0.0500000007 0.100000001 0 200000 200000 0.00999999978 
0.300000012 0.100000001 0.0500000007 0 200000 200000 0.00999999978 
0.300000012 0.100000001 0.100000001 0 200000 200000 0.00999999978 
0.350000024 0.0500000007 0.0500000007 0 200000 200000 0.00999999978 
0.350000024 0.0500000007 0.100000001 0 200000 200000 0.00999999978 
0.350000024 0.100000001 0.0500000007 0 200000 200000 0.00999999978 
0.350000024 0.100000001 0.100000001 0 200000 200000 0.00999999978 
0.400000006 0.0500000007 0.0500000007 0 200000 200000 0.00999999978 
0.400000006 0.0500000007 0.100000001 0 200000 200000 0.00999999978 
0.400000006 0.100000001 0.0500000007 0 200000 200000 0.00999999978 
0.400000006 0.100000001 0.100000001 0 200000 200000 0.00999999978 
0.450000018 0.0500000007 0.0500000007 0 200000 200000 0.00999999978 
0.450000018 0.0500000007 0.100000001 0 200000 200000 0.00999999978 
0.450000018 0.100000001 0.0500000007 0 200000 200000 0.00999999978 
0.450000018 0.100000001 0.100000001 0 200000 200000 0.00999999978 
0.5 0.0500000007 0.0500000007 0 200000 200000 0.00999999978 
0.5 0.0500000007 0.100000001 0 200000 200000 0.00999999978 
0.5 0.100000001 0.0500000007 0 200000 200000 0.00999999978 
0.5 0.100000001 0.100000001 0 200000 200000 0.00999999978 
0.550000012 0.0500000007 0.0500000007 0 200000 200000 0.00999999978 
0.550000012 0.0500000007 0.100000001 0 200000 200000 0.00999999978 
0.550000012 0.100000001 0.0500000007 0 200000 200000 0.00999999978 
0.550000012 0.100000001 0.100000001 0 200000 200000 0.00999999978 
0.600000024 0.0500000007 0.0500000007 0 200000 200000 0.00999999978 
0.600000024 0.0500000007 0.100000001 0 200000 200000 0.00999999978 
0.600000024 0.100000001 0.0500000007 0 200000 200000 0.00999999978 
0.600000024 0.100000001 0.100000001 0 200000 200000 0.00999999978 
0.650000036 0.0500000007 0.0500000007 0 200000 200000 0.00999999978 
0.650000036 0.0500000007 0.100000001 0 200000 200000 0.00999999978 
0.650000036 0.100000001 0.0500000007 0 200000 200000 0.00999999978 
0.650000036 0.100000001 0.100000001 0 200000 200000 0.00999999978 
0.700000048 0.0500000007 0.0500000007 0 200000 200000 0.00999999978 
0.700000048 0.0500000007 0.100000001 0 200000 200000 0.00999999978 
0.700000048 0.100000001 0.0500000007 0 200000 200000 0.00999999978 
0.700000048 0.100000001 0.100000001 0 200000 200000 0.00999999978 
0.75 0.0500000007 0.0500000007 0 200000 200000 0.00999999978 
0.75 0.0500000007 0.100000001 0 200000 200000 0.00999999978 
0.75 0.100000001 0.0500000007 0 200000 200000 0.00999999978 
0.75 0.100000001 0.100000001 0 200000 200000 0.00999999978 
0.800000012 0.0500000007 0.0500000007 0 200000 200000 0.00999999978 
0.800000012 0.0500000007 0.100000001 0 200000 200000 0.00999999978 
0.800000012 0.100000001 0.0500000007 0 200000 200000 0.00999999978 
0.800000012 0.100000001 0.100000001 0 200000 200000 0.00999999978 
0.850000024 0.0500000007 0.0500000007 0 200000 200000 0.00999999978 
0.850000024 0.0500000007 0.100000001 0 200000 200000 0.00999999978 
0.850000024 0.100000001 0.0500000007 0 200000 200000 0.00999999978 
0.850000024 0.100000001 0.100000001 0 200000 200000 0.00999999978 
0.900000036 0.0500000007 0.0500000007 0 200000 200000 0.00999999978 
0.900000036 0.0500000007 0.100000001 0 200000 200000 0.00999999978 
0.900000036 0.100000001 0.0500000007 0 200000 200000 0.00999999978 
0.900000036 0.100000001 0.100000001 0 200000 200000 0.00999999978 
0.950000048 0.0500000007 0.0500000007 0 200000 200000 0.00999999978 
0.950000048 0.0500000007 0.100000001 0 200000 200000 0.00999999978 
0.950000048 0.100000001 0.0500000007 0 200000 200000 0.00999999978 
0.950000048 0.100000001 0.100000001 0 200000 200000 0.00999999978 
1 0.0500000007 0.0500000007 0 200000 200000 0.00999999978 
1 0.0500000007 0.100000001 0 200000 200000 0.00999999978 
1 0.100000001 0.0500000007 0 200000 200000 0.00999999978 
1 0.100000001 0.100000001 0 200000 200000 0.00999999978 
1.04999995 0.0500000007 0.0500000007 0 200000 200000 0.00999999978 
1.04999995 0.0500000007 0.100000001 0 200000 200000 0.00999999978 
1.04999995 0.100000001 0.0500000007 0 200000 200000 0.00999999978 
1.04999995 0.100000001 0.100000001 0 200000 200000 0.00999999978 
1.10000002 0.0500000007 0.0500000007 0 200000 200000 0.00999999978 
1.10000002 0.0500000007 0.100000001 0 200000 200000 0.00999999978 
1.10000002 0.100000001 0.0500000007 0 200000 200000 0.00999999978 
1.10000002 0.100000001 0.100000001 0 200000 200000 0.00999999978 
1.14999998 0.0500000007 0.0500000007 0 200000 200000 0.00999999978 
1.14999998 0.0500000007 0.100000001 0 200000 200000 0.00999999978 
1.14999998 0.100000001 0.0500000007 0 200000 200000 0.00999999978 
1.14999998 0.100000001 0.100000001 0 200000 200000 0.00999999978 
1.19999993 0.0500000007 0.0500000007 0 200000 200000 0.00999999978 
1.19999993 0.0500000007 0.100000001 0 200000 200000 0.00999999978 
1.19999993 0.100000001 0.0500000007 0 200000 200000 0.00999999978 
1.19999993 0.100000001 0.100000001 0 200000 200000 0.00999999978 
1.25 0.0500000007 0.0500000007 0 200000 200000 0.00999999978 
1.25 0.0500000007 0.100000001 0 200000 200000 0.00999999978 
1.25 0.100000001 0.0500000007 0 200000 200000 0.00999999978 
1.25 0.100000001 0.100000001 0 200000 200000 0.00999999978 
1.29999995 0.0500000007 0.0500000007 0 200000 200000 0.00999999978 
1.29999995 0.0500000007 0.100000001 0 200000 200000 0.00999999978 
1.29999995 0.100000001 0.0500000007 0 200000 200000 0.00999999978 
1.29999995 0.100000001 0.100000001 0 200000 200000 0.00999999978 
1.35000002 0.0500000007 0.0500000007 0 200000 200000 0.00999999978 
1.35000002 0.0500000007 0.100000001 0 200000 200000 0.00999999978 
1.35000002 0.100000001 0.0500000007 0 200000 200000 0.00999999978 
1.35000002 0.100000001 0.100000001 0 200000 200000 0.00999999978 
1.39999998 0.0500000007 0.0500000007 0 200000 200000 0.00999999978 
1.39999998 0.0500000007 0.100000001 0 200000 200000 0.00999999978 
1.39999998 0.100000001 0.0500000007 0 200000 200000 0.00999999978 
1.39999998 0.100000001 0.100000001 0 200000 200000 0.00999999978 
1.44999993 0.0500000007 0.0500000007 0 200000 200000 0.00999999978 
1.44999993 0.0500000007 0.100000001 0 200000 200000 0.00999999978 
1.44999993 0.100000001 0.0500000007 0 200000 200000 0.00999999978 
1.44999993 0.100000001 0.100000001 0 200000 200000 0.00999999978 
1.5 0.0500000007 0.0500000007 0 200000 200000 0.00999999978 
1.5 0.0500000007 0.100000001 0 200000 200000 0.00999999978 
1.5 0.100000001 0.0500000007 0 200000 200000 0.00999999978 
1.5 0.100000001 0.100000001 0 200000 200000 0.00999999978 
1.54999995 0.0500000007 0.0500000007 0 200000 200000 0.00999999978 
1.54999995 0.0500000007 0.100000001 0 200000 200000 0.00999999978 
1.54999995 0.100000001 0.0500000007 0 200000 200000 0.00999999978 
1.54999995 0.100000001 0.100000001 0 200000 200000 0.00999999978 
1.60000002 0.0500000007 0.0500000007 0 200000 200000 0.00999999978 
1.60000002 0.0500000007 0.100000001 0 200000 200000 0.00999999978 
1.60000002 0.100000001 0.0500000007 0 200000 200000 0.00999999978 
1.60000002 0.100000001 0.100000001 0 200000 200000 0.00999999978 
1.64999998 0.0500000007 0.0500000007 0 200000 200000 0.00999999978 
1.64999998 0.0500000007 0.100000001 0 200000 200000 0.00999999978 
1.64999998 0.100000001 0.0500000007 0 200000 200000 0.00999999978 
1.64999998 0.100000001 0.100000001 0 200000 200000 0.00999999978 
1.69999993 0.0500000007 0.0500000007 0 200000 200000 0.00999999978 
1.69999993 0.0500000007 0.100000001 0 200000 200000 0.00999999978 
1.69999993 0.100000001 0.0500000007 0 200000 200000 0.00999999978 
1.69999993 0.100000001 0.100000001 0 200000 200000 0.00999999978 
1.75 0.0500000007 0.0500000007 0 200000 200000 0.00999999978 
1.75 0.0500000007 0.100000001 0 200000 200000 0.00999999978 
1.75 0.100000001 0.0500000007 0 200000 200000 0.00999999978 
1.75 0.100000001 0.100000001 0 200000 200000 0.00999999978 
1.79999995 0.0500000007 0.0500000007 0 200000 200000 0.00999999978 
1.79999995 0.0500000007 0.100000001 0 200000 200000 0.00999999978 
1.79999995 0.100000001 0.0500000007 0 200000 200000 0.00999999978 
1.79999995 0.100000001 0.100000001 0 200000 200000 0.00999999978 
1.85000002 0.0500000007 0.0500000007 0 200000 200000 0.00999999978 
1.85000002 0.0500000007 0.100000001 0 200000 200000 0.00999999978 
1.85000002 0.100000001 0.0500000007 0 200000 200000 0.00999999978 
1.85000002 0.100000001 0.100000001 0 200000 200000 0.00999999978 
1.89999998 0.0500000007 0.0500000007 0 200000 200000 0.00999999978 
1.89999998 0.0500000007 0.100000001 0 200000 200000 0.00999999978 
1.89999998 0.100000001 0.0500000007 0 200000 200000 0.00999999978 
1.89999998 0.100000001 0.100000001 0 200000 200000 0.00999999978 
1.94999993 0.0500000007 0.0500000007 0 200000 200000 0.00999999978 
1.94999993 0.0500000007 0.100000001 0 200000 200000 0.00999999978 
1.94999993 0.100000001 0.0500000007 0 200000 200000 0.00999999978 
1.94999993 0.100000001 0.100000001 0 200000 200000 0.00999999978 
2 0.0500000007 0.0500000007 0 200000 200000 0.00999999978 
2 0.0500000007 0.100000001 0 200000 200000 0.00999999978 
2 0.100000001 0.0500000007 0 200000 200000 0.00999999978 
2 0.100000001 0.100000001 0 200000 200000 0.00999999978 
2.04999995 0.0500000007 0.0500000007 0 200000 200000 0.00999999978 
2.04999995 0.0500000007 0.100000001 0 200000 200000 0.00999999978 
2.04999995 0.100000001 0.0500000007 0 200000 200000 0.00999999978 
2.04999995 0.100000001 0.100000001 0 200000 200000 0.00999999978 
2.0999999 0.0500000007 0.0500000007 0 200000 200000 0.00999999978 
2.0999999 0.0500000007 0.100000001 0 200000 200000 0.00999999978 
2.0999999 0.100000001 0.0500000007 0 200000 200000 0.00999999978 
2.0999999 0.100000001 0.100000001 0 200000 200000 0.00999999978 
2.1500001 0.0500000007 0.0500000007 0 200000 200000 0.00999999978 
2.1500001 0.0500000007 0.100000001 0 200000 200000 0.00999999978 
2.1500001 0.100000001 0.0500000007 0 200000 200000 0.00999999978 
2.1500001 0.100000001 0.100000001 0 200000 200000 0.00999999978 
2.20000005 0.0500000007 0.0500000007 0 200000 200000 0.00999999978 
2.20000005 0.0500000007 0.100000001 0 200000 200000 0.00999999978 
2.20000005 0.100000001 0.0500000007 0 200000 200000 0.00999999978 
2.20000005 0.100000001 0.100000001 0 200000 200000 0.00999999978 
2.25 0.0500000007 0.0500000007 0 200000 200000 0.00999999978 
2.25 0.0500000007 0.100000001 0 200000 200000 0.00999999978 
2.25 0.100000001 0.0500000007 0 200000 200000 0.00999999978 
2.25 0.100000001 0.100000001 0 200000 200000 0.00999999978 
2.29999995 0.0500000007 0.0500000007 0 200000 200000 0.00999999978 
2.29999995 0.0500000007 0.100000001 0 200000 200000 0.00999999978 
2.29999995 0.100000001 0.0500000007 0 200000 200000 0.00999999978 
2.29999995 0.100000001 0.100000001 0 200000 200000 0.00999999978 
2.3499999 0.0500000007 0.0500000007 0 200000 200000 0.00999999978 
2.3499999 0.0500000007 0.100000001 0 200000 200000 0.00999999978 
2.3499999 0.100000001 0.0500000007 0 200000 200000 0.00999999978 
2.3499999 0.100000001 0.100000001 0 200000 200000 0.00999999978 
2.4000001 0.0500000007 0.0500000007 0 200000 200000 0.00999999978 
2.4000001 0.0500000007 0.100000001 0 200000 200000 0.00999999978 
2.4000001 0.100000001 0.0500000007 0 200000 200000 0.00999999978 
2.4000001 0.100000001 0.100000001 0 200000 200000 0.00999999978 
2.45000005 0.0500000007 0.0500000007 0 200000 200000 0.00999999978 
2.45000005 0.0500000007 0.100000001 0 200000 200000 0.00999999978 
2.45000005 0.100000001 0.0500000007 0 200000 200000 0.00999999978 
2.45000005 0.100000001 0.100000001 0 200000 200000 0.00999999978 
2.5 0.0500000007 0.0500000007 0 200000 200000 0.00999999978 
2.5 0.0500000007 0.100000001 0 200000 200000 0.00999999978 
2.5 0.100000001 0.0500000007 0 200000 200000 0.00999999978 
2.5 0.100000001 0.100000001 0 200000 200000 0.00999999978 
2.54999995 0.0500000007 0.0500000007 0 200000 200000 0.00999999978 
2.54999995 0.0500000007 0.100000001 0 200000 200000 0.00999999978 
2.54999995 0.100000001 0.0500000007 0 200000 200000 0.00999999978 
2.54999995 0.100000001 0.100000001 0 200000 200000 0.00999999978 
2.5999999 0.0500000007 0.0500000007 0 200000 200000 0.00999999978 
2.5999999 0.0500000007 0.100000001 0 200000 200000 0.00999999978 
2.5999999 0.100000001 0.0500000007 0 200000 200000 0.00999999978 
2.5999999 0.100000001 0.100000001 0 200000 200000 0.00999999978 
2.6500001 0.0500000007 0.0500000007 0 200000 200000 0.00999999978 
2.6500001 0.0500000007 0.100000001 0 200000 200000 0.00999999978 
2.6500001 0.100000001 0.0500000007 0 200000 200000 0.00999999978 
2.6500001 0.100000001 0.100000001 0 200000 200000 0.00999999978 
2.70000005 0.0500000007 0.0500000007 0 200000 200000 0.00999999978 
2.70000005 0.0500000007 0.100000001 0 200000 200000 0.00999999978 
2.70000005 0.100000001 0.0500000007 0 200000 200000 0.00999999978 
2.70000005 0.100000001 0.100000001 0 200000 200000 0.00999999978 
2.75 0.0500000007 0.0500000007 0 200000 200000 0.00999999978 
2.75 0.0500000007 0.100000001 0 200000 200000 0.00999999978 
2.75 0.100000001 0.0500000007 0 200000 200000 0.00999999978 
2.75 0.100000001 0.100000001 0 200000 200000 0.00999999978 
2.79999995 0.0500000007 0.0500000007 0 200000 200000 0.00999999978 
2.79999995 0.0500000007 0.100000001 0 200000 200000 0.00999999978 
2.79999995 0.100000001 0.0500000007 0 200000 200000 0.00999999978 
2.79999995 0.100000001 0.100000001 0 200000 200000 0.00999999978 
2.8499999 0.0500000007 0.0500000007 0 200000 200000 0.00999999978 
2.8499999 0.0500000007 0.100000001 0 200000 200000 0.00999999978 
2.8499999 0.100000001 0.0500000007 0 200000 200000 0.00999999978 
2.8499999 0.100000001 0.100000001 0 200000 200000 0.00999999978 
2.9000001 0.0500000007 0.0500000007 0 200000 200000 0.00999999978 
2.9000001 0.0500000007 0.100000001 0 200000 200000 0.00999999978 
2.9000001 0.100000001 0.0500000007 0 200000 200000 0.00999999978 
2.9000001 0.100000001 0.100000001 0 200000 200000 0.00999999978 
2.95000005 0.0500000007 0.0500000007 0 200000 200000 0.00999999978 
2.95000005 0.0500000007 0.100000001 0 200000 200000 0.00999999978 
2.95000005 0.100000001 0.0500000007 0 200000 200000 0.00999999978 
2.95000005 0.100000001 0.100000001 0 200000 200000 0.00999999978 
3 0.0500000007 0.0500000007 0 200000 200000 0.00999999978 
3 0.0500000007 0.100000001 0 200000 200000 0.00999999978 
3 0.100000001 0.0500000007 0 200000 200000 0.00999999978 
3 0.100000001 0.100000001 0 200000 200000 0.00999999978 
3.04999995 0.0500000007 0.0500000007 0 200000 200000 0.00999999978 
3.04999995 0.0500000007 0.100000001 0 200000 200000 0.00999999978 
3.04999995 0.100000001 0.0500000007 0 200000 200000 0.00999999978 
3.04999995 0.100000001 0.100000001 0 200000 200000 0.00999999978 
0.0500000007 0.150000006 0.0500000007 1 200000 200000 0.00999999978 
0.0500000007 0.150000006 0.100000001 1 200000 200000 0.00999999978 
0.100000001 0.150000006 0.0500000007 1 200000 200000 0.00999999978 
0.100000001 0.150000006 0.100000001 1 200000 200000 0.00999999978 
0.150000006 0.150000006 0.0500000007 1 200000 200000 0.00999999978 
0.150000006 0.150000006 0.100000001 1 200000 200000 0.00999999978 
0.200000003 0.150000006 0.0500000007 0 200000 200000 0.00999999978 
0.200000003 0.150000006 0.100000001 0 200000 200000 0.00999999978 
0.25 0.150000006 0.0500000007 0 200000 200000 0.00999999978 
0.25 0.150000006 0.100000001 0 200000 200000 0.00999999978 
0.300000012 0.150000006 0.0500000007 0 200000 200000 0.00999999978 
0.300000012 0.150000006 0.100000001 0 200000 200000 0.00999999978 
0.350000024 0.150000006 0.0500000007 0 200000 200000 0.00999999978 
0.350000024 0.150000006 0.100000001 0 200000 200000 0.00999999978 
0.400000006 0.150000006 0.0500000007 0 200000 200000 0.00999999978 
0.400000006 0.150000006 0.100000001 0 200000 200000 0.00999999978 
0.450000018 0.150000006 0.0500000007 0 200000 200000 0.00999999978 
0.450000018 0.150000006 0.100000001 0 200000 200000 0.00999999978 
0.5 0.150000006 0.0500000007 0 200000 200000 0.00999999978 
0.5 0.150000006 0.100000001 0 200000 200000 0.00999999978 
0.550000012 0.150000006 0.0500000007 0 200000 200000 0.00999999978 
0.550000012 0.150000006 0.100000001 0 200000 200000 0.00999999978 
0.600000024 0.150000006 0.0500000007 0 200000 200000 0.00999999978 
0.600000024 0.150000006 0.100000001 0 200000 200000 0.00999999978 
0.650000036 0.150000006 0.0500000007 0 200000 200000 0.00999999978 
0.650000036 0.150000006 0.100000001 0 200000 200000 0.00999999978 
0.700000048 0.150000006 0.0500000007 0 200000 200000 0.00999999978 
0.700000048 0.150000006 0.100000001 0 200000 200000 0.00999999978 
0.75 0.150000006 0.0500000007 0 200000 200000 0.00999999978 
0.75 0.150000006 0.100000001 0 200000 200000 0.00999999978 
0.800000012 0.150000006 0.0500000007 0 200000 200000 0.00999999978 
0.800000012 0.150000006 0.100000001 0 200000 200000 0.00999999978 
0.850000024 0.150000006 0.0500000007 0 200000 200000 0.00999999978 
0.850000024 0.150000006 0.100000001 0 200000 200000 0.00999999978 
0.900000036 0.150000006 0.0500000007 0 200000 200000 0.00999999978 
0.900000036 0.150000006 0.100000001 0 200000 200000 0.00999999978 
0.950000048 0.150000006 0.0500000007 0 200000 200000 0.00999999978 
0.950000048 0.150000006 0.100000001 0 200000 200000 0.00999999978 
1 0.150000006 0.0500000007 0 200000 200000 0.00999999978 
1 0.150000006 0.100000001 0 200000 200000 0.00999999978 
1.04999995 0.150000006 0.0500000007 0 200000 200000 0.00999999978 
1.04999995 0.150000006 0.100000001 0 200000 200000 0.00999999978 
1.10000002 0.150000006 0.0500000007 0 200000 200000 0.00999999978 
1.10000002 0.150000006 0.100000001 0 200000 200000 0.00999999978 
1.14999998 0.150000006 0.0500000007 0 200000 200000 0.00999999978 
1.14999998 0.150000006 0.100000001 0 200000 200000 0.00999999978 
1.19999993 0.150000006 0.0500000007 0 200000 200000 0.00999999978 
1.19999993 0.150000006 0.100000001 0 200000 200000 0.00999999978 
1.25 0.150000006 0.0500000007 0 200000 200000 0.00999999978 
1.25 0.150000006 0.100000001 0 200000 200000 0.00999999978 
1.29999995 0.150000006 0.0500000007 0 200000 200000 0.00999999978 
1.29999995 0.150000006 0.100000001 0 200000 200000 0.00999999978 
1.35000002 0.150000006 0.0500000007 0 200000 200000 0.00999999978 
1.35000002 0.150000006 0.100000001 0 200000 200000 0.00999999978 
1.39999998 0.150000006 0.0500000007 0 200000 200000 0.00999999978 
1.39999998 0.150000006 0.100000001 0 200000 200000 0.00999999978 
1.44999993 0.150000006 0.0500000007 0 200000 200000 0.00999999978 
1.44999993 0.150000006 0.100000001 0 200000 200000 0.00999999978 
1.5 0.150000006 0.0500000007 0 200000 200000 0.00999999978 
1.5 0.150000006 0.100000001 0 200000 200000 0.00999999978 
1.54999995 0.150000006 0.0500000007 0 200000 200000 0.00999999978 
1.54999995 0.150000006 0.100000001 0 200000 200000 0.00999999978 
1.60000002 0.150000006 0.0500000007 0 200000 200000 0.00999999978 
1.60000002 0.150000006 0.100000001 0 200000 200000 0.00999999978 
1.64999998 0.150000006 0.0500000007 0 200000 200000 0.00999999978 
1.64999998 0.150000006 0.100000001 0 200000 200000 0.00999999978 
1.69999993 0.150000006 0.0500000007 0 200000 200000 0.00999999978 
1.69999993 0.150000006 0.100000001 0 200000 200000 0.00999999978 
1.75 0.150000006 0.0500000007 0 200000 200000 0.00999999978 
1.75 0.150000006 0.100000001 0 200000 200000 0.00999999978 
1.79999995 0.150000006 0.0500000007 0 200000 200000 0.00999999978 
1.79999995 0.150000006 0.100000001 0 200000 200000 0.00999999978 
1.85000002 0.150000006 0.0500000007 0 200000 200000 0.00999999978 
1.85000002 0.150000006 0.100000001 0 200000 200000 0.00999999978 
1.89999998 0.150000006 0.0500000007 0 200000 200000 0.00999999978 
1.89999998 0.150000006 0.100000001 0 200000 200000 0.00999999978 
1.94999993 0.150000006 0.0500000007 0 200000 200000 0.00999999978 
1.94999993 0.150000006 0.100000001 0 200000 200000 0.00999999978 
2 0.150000006 0.0500000007 0 200000 200000 0.00999999978 
2 0.150000006 0.100000001 0 200000 200000 0.00999999978 
2.04999995 0.150000006 0.0500000007 0 200000 200000 0.00999999978 
2.04999995 0.150000006 0.100000001 0 200000 200000 0.00999999978 
2.0999999 0.150000006 0.0500000007 0 200000 200000 0.00999999978 
2.0999999 0.150000006 0.100000001 0 200000 200000 0.00999999978 
2.1500001 0.150000006 0.0500000007 0 200000 200000 0.00999999978 
2.1500001 0.150000006 0.100000001 0 200000 200000 0.00999999978 
2.20000005 0.150000006 0.0500000007 0 200000 200000 0.00999999978 
2.20000005 0.150000006 0.100000001 0 200000 200000 0.00999999978 
2.25 0.150000006 0.0500000007 0 200000 200000 0.00999999978 
2.25 0.150000006 0.100000001 0 200000 200000 0.00999999978 
2.29999995 0.150000006 0.0500000007 0 200000 200000 0.00999999978 
2.29999995 0.150000006 0.100000001 0 200000 200000 0.00999999978 
2.3499999 0.150000006 0.0500000007 0 200000 200000 0.00999999978 
2.3499999 0.150000006 0.100000001 0 200000 200000 0.00999999978 
2.4000001 0.150000006 0.0500000007 0 200000 200000 0.00999999978 
2.4000001 0.150000006 0.100000001 0 200000 200000 0.00999999978 
2.45000005 0.150000006 0.0500000007 0 200000 200000 0.00999999978 
2.45000005 0.150000006 0.100000001 0 200000 200000 0.00999999978 
2.5 0.150000006 0.0500000007 0 200000 200000 0.00999999978 
2.5 0.150000006 0.100000001 0 200000 200000 0.00999999978 
2.54999995 0.150000006 0.0500000007 0 200000 200000 0.00999999978 
2.54999995 0.150000006 0.100000001 0 200000 200000 0.00999999978 
2.5999999 0.150000006 0.0500000007 0 200000 200000 0.00999999978 
2.5999999 0.150000006 0.100000001 0 200000 200000 0.00999999978 
2.6500001 0.150000006 0.0500000007 0 200000 200000 0.00999999978 
2.6500001 0.150000006 0.100000001 0 200000 200000 0.00999999978 
2.70000005 0.150000006 0.0500000007 0 200000 200000 0.00999999978 
2.70000005 0.150000006 0.100000001 0 200000 200000 0.00999999978 
2.75 0.150000006 0.0500000007 0 200000 200000 0.00999999978 
2.75 0.150000006 0.100000001 0 200000 200000 0.00999999978 
2.79999995 0.150000006 0.0500000007 0 200000 200000 0.00999999978 
2.79999995 0.150000006 0.100000001 0 200000 200000 0.00999999978 
2.8499999 0.150000006 0.0500000007 0 200000 200000 0.00999999978 
2.8499999 0.150000006 0.100000001 0 200000 200000 0.00999999978 
2.9000001 0.150000006 0.0500000007 0 200000 200000 0.00999999978 
2.9000001 0.150000006 0.100000001 0 200000 200000 0.00999999978 
2.95000005 0.150000006 0.0500000007 0 200000 200000 0.00999999978 
2.95000005 0.150000006 0.100000001 0 200000 200000 0.00999999978 
3 0.150000006 0.0500000007 0 200000 200000 0.00999999978 
3 0.150000006 0.100000001 0 200000 200000 0.00999999978 
3.04999995 0.150000006 0.0500000007 0 200000 200000 0.00999999978 
3.04999995 0.150000006 0.100000001 0 200000 200000 0.00999999978 
0.0500000007 0.0500000007 0.150000006 1 200000 200000 0.00999999978 
0.0500000007 0.100000001 0.150000006 1 200000 200000 0.00999999978 
0.100000001 0.0500000007 0.150000006 1 200000 200000 0.00999999978 
0.100000001 0.100000001 0.150000006 1 200000 200000 0.00999999978 
0.150000006 0.0500000007 0.150000006 1 200000 200000 0.00999999978 
0.150000006 0.100000001 0.150000006 1 200000 200000 0.00999999978 
0.200000003 0.0500000007 0.150000006 0 200000 200000 0.00999999978 
0.200000003 0.100000001 0.150000006 0 200000 200000 0.00999999978 
0.25 0.0500000007 0.150000006 0 200000 200000 0.00999999978 
0.25 0.100000001 0.150000006 0 200000 200000 0.00999999978 
0.300000012 0.0500000007 0.150000006 0 200000 200000 0.00999999978 
0.300000012 0.100000001 0.150000006 0 200000 200000 0.00999999978 
0.350000024 0.0500000007 0.150000006 0 200000 200000 0.00999999978 
0.350000024 0.100000001 0.150000006 0 200000 200000 0.00999999978 
0.400000006 0.0500000007 0.150000006 0 200000 200000 0.00999999978 
0.400000006 0.100000001 0.150000006 0 200000 200000 0.00999999978 
0.450000018 0.0500000007 0.150000006 0 200000 200000 0.00999999978 
0.450000018 0.100000001 0.150000006 0 200000 200000 0.00999999978 
0.5 0.0500000007 0.150000006 0 200000 200000 0.00999999978 
0.5 0.100000001 0.150000006 0 200000 200000 0.00999999978 
0.550000012 0.0500000007 0.150000006 0 200000 200000 0.00999999978 
0.550000012 0.100000001 0.150000006 0 200000 200000 0.00999999978 
0.600000024 0.0500000007 0.150000006 0 200000 200000 0.00999999978 
0.600000024 0.100000001 0.150000006 0 200000 200000 0.00999999978 
0.650000036 0.0500000007 0.150000006 0 200000 200000 0.00999999978 
0.650000036 0.100000001 0.150000006 0 200000 200000 0.00999999978 
0.700000048 0.0500000007 0.150000006 0 200000 200000 0.00999999978 
0.700000048 0.100000001 0.150000006 0 200000 200000 0.00999999978 
0.75 0.0500000007 0.150000006 0 200000 200000 0.00999999978 
0.75 0.100000001 0.150000006 0 200000 200000 0.00999999978 
0.800000012 0.0500000007 0.150000006 0 200000 200000 0.00999999978 
0.800000012 0.100000001 0.150000006 0 200000 200000 0.00999999978 
0.850000024 0.0500000007 0.150000006 0 200000 200000 0.00999999978 
0.850000024 0.100000001 0.150000006 0 200000 200000 0.00999999978 
0.900000036 0.0500000007 0.150000006 0 200000 200000 0.00999999978 
0.900000036 0.100000001 0.150000006 0 200000 200000 0.00999999978 
0.950000048 0.0500000007 0.150000006 0 200000 200000 0.00999999978 
0.950000048 0.100000001 0.150000006 0 200000 200000 0.00999999978 
1 0.0500000007 0.150000006 0 200000 200000 0.00999999978 
1 0.100000001 0.150000006 0 200000 200000 0.00999999978 
1.04999995 0.0500000007 0.150000006 0 200000 200000 0.00999999978 
1.04999995 0.100000001 0.150000006 0 200000 200000 0.00999999978 
1.10000002 0.0500000007 0.150000006 0 200000 200000 0.00999999978 
1.10000002 0.100000001 0.150000006 0 200000 200000 0.00999999978 
1.14999998 0.0500000007 0.150000006 0 200000 200000 0.00999999978 
1.14999998 0.100000001 0.150000006 0 200000 200000 0.00999999978 
1.19999993 0.0500000007 0.150000006 0 200000 200000 0.00999999978 
1.19999993 0.100000001 0.150000006 0 200000 200000 0.00999999978 
1.25 0.0500000007 0.150000006 0 200000 200000 0.00999999978 
1.25 0.100000001 0.150000006 0 200000 200000 0.00999999978 
1.29999995 0.0500000007 0.150000006 0 200000 200000 0.00999999978 
1.29999995 0.100000001 0.150000006 0 200000 200000 0.00999999978 
1.35000002 0.0500000007 0.150000006 0 200000 200000 0.00999999978 
1.35000002 0.100000001 0.150000006 0 200000 200000 0.00999999978 
1.39999998 0.0500000007 0.150000006 0 200000 200000 0.00999999978 
1.39999998 0.100000001 0.150000006 0 200000 200000 0.00999999978 
1.44999993 0.0500000007 0.150000006 0 200000 200000 0.00999999978 
1.44999993 0.100000001 0.150000006 0 200000 200000 0.00999999978 
1.5 0.0500000007 0.150000006 0 200000 200000 0.00999999978 
1.5 0.100000001 0.150000006 0 200000 200000 0.00999999978 
1.54999995 0.0500000007 0.150000006 0 200000 200000 0.00999999978 
1.54999995 0.100000001 0.150000006 0 200000 200000 0.00999999978 
1.60000002 0.0500000007 0.150000006 0 200000 200000 0.00999999978 
1.60000002 0.100000001 0.150000006 0 200000 200000 0.00999999978 
1.64999998 0.0500000007 0.150000006 0 200000 200000 0.00999999978 
1.64999998 0.100000001 0.150000006 0 200000 200000 0.00999999978 
1.69999993 0.0500000007 0.150000006 0 200000 200000 0.00999999978 
1.69999993 0.100000001 0.150000006 0 200000 200000 0.00999999978 
1.75 0.0500000007 0.150000006 0 200000 200000 0.00999999978 
1.75 0.100000001 0.150000006 0 200000 200000 0.00999999978 
1.79999995 0.0500000007 0.150000006 0 200000 200000 0.00999999978 
1.79999995 0.100000001 0.150000006 0 200000 200000 0.00999999978 
1.85000002 0.0500000007 0.150000006 0 200000 200000 0.00999999978 
1.85000002 0.100000001 0.150000006 0 200000 200000 0.00999999978 
1.89999998 0.0500000007 0.150000006 0 200000 200000 0.00999999978 
1.89999998 0.100000001 0.150000006 0 200000 200000 0.00999999978 
1.94999993 0.0500000007 0.150000006 0 200000 200000 0.00999999978 
1.94999993 0.100000001 0.150000006 0 200000 200000 0.00999999978 
2 0.0500000007 0.150000006 0 200000 200000 0.00999999978 
2 0.100000001 0.150000006 0 200000 200000 0.00999999978 
2.04999995 0.0500000007 0.150000006 0 200000 200000 0.00999999978 
2.04999995 0.100000001 0.150000006 0 200000 200000 0.00999999978 
2.0999999 0.0500000007 0.150000006 0 200000 200000 0.00999999978 
2.0999999 0.100000001 0.150000006 0 200000 200000 0.00999999978 
2.1500001 0.0500000007 0.150000006 0 200000 200000 0.00999999978 
2.1500001 0.100000001 0.150000006 0 200000 200000 0.00999999978 
2.20000005 0.0500000007 0.150000006 0 200000 200000 0.00999999978 
2.20000005 0.100000001 0.150000006 0 200000 200000 0.00999999978 
2.25 0.0500000007 0.150000006 0 200000 200000 0.00999999978 
2.25 0.100000001 0.150000006 0 200000 200000 0.00999999978 
2.29999995 0.0500000007 0.150000006 0 200000 200000 0.00999999978 
2.29999995 0.100000001 0.150000006 0 200000 200000 0.00999999978 
2.3499999 0.0500000007 0.150000006 0 200000 200000 0.00999999978 
2.3499999 0.100000001 0.150000006 0 200000 200000 0.00999999978 
2.4000001 0.0500000007 0.150000006 0 200000 200000 0.00999999978 
2.4000001 0.100000001 0.150000006 0 200000 200000 0.00999999978 
2.45000005 0.0500000007 0.150000006 0 200000 200000 0.00999999978 
2.45000005 0.100000001 0.150000006 0 200000 200000 0.00999999978 
2.5 0.0500000007 0.150000006 0 200000 200000 0.00999999978 
2.5 0.100000001 0.150000006 0 200000 200000 0.00999999978 
2.54999995 0.0500000007 0.150000006 0 200000 200000 0.00999999978 
2.54999995 0.100000001 0.150000006 0 200000 200000 0.00999999978 
2.5999999 0.0500000007 0.150000006 0 200000 200000 0.00999999978 
2.5999999 0.100000001 0.150000006 0 200000 200000 0.00999999978 
2.6500001 0.0500000007 0.150000006 0 200000 200000 0.00999999978 
2.6500001 0.100000001 0.150000006 0 200000 200000 0.00999999978 
2.70000005 0.0500000007 0.150000006 0 200000 200000 0.00999999978 
2.70000005 0.100000001 0.150000006 0 200000 200000 0.00999999978 
2.75 0.0500000007 0.150000006 0 200000 200000 0.00999999978 
2.75 0.100000001 0.150000006 0 200000 200000 0.00999999978 
2.79999995 0.0500000007 0.150000006 0 200000 200000 0.00999999978 
2.79999995 0.100000001 0.150000006 0 200000 200000 0.00999999978 
2.8499999 0.0500000007 0.150000006 0 200000 200000 0.00999999978 
2.8499999 0.100000001 0.150000006 0 200000 200000 0.00999999978 
2.9000001 0.0500000007 0.150000006 0 200000 200000 0.00999999978 
2.9000001 0.100000001 0.150000006 0 200000 200000 0.00999999978 
2.95000005 0.0500000007 0.150000006 0 200000 200000 0.00999999978 
2.95000005 0.100000001 0.150000006 0 200000 200000 0.00999999978 
3 0.0500000007 0.150000006 0 200000 200000 0.00999999978 
3 0.100000001 0.150000006 0 200000 200000 0.00999999978 
3.04999995 0.0500000007 0.150000006 0 200000 200000 0.00999999978 
3.04999995 0.100000001 0.150000006 0 200000 200000 0.00999999978 
0.0500000007 0.150000006 0.150000006 1 200000 200000 0.00999999978 
0.100000001 0.150000006 0.150000006 1 200000 200000 0.00999999978 
0.150000006 0.150000006 0.150000006 1 200000 200000 0.00999999978 
0.200000003 0.150000006 0.150000006 0 200000 200000 0.00999999978 
0.25 0.150000006 0.150000006 0 200000 200000 0.00999999978 
0.300000012 0.150000006 0.150000006 0 200000 200000 0.00999999978 
0.350000024 0.150000006 0.150000006 0 200000 200000 0.00999999978 
0.400000006 0.150000006 0.150000006 0 200000 200000 0.00999999978 
0.450000018 0.150000006 0.150000006 0 200000 200000 0.00999999978 
0.5 0.150000006 0.150000006 0 200000 200000 0.00999999978 
0.550000012 0.150000006 0.150000006 0 200000 200000 0.00999999978 
0.600000024 0.150000006 0.150000006 0 200000 200000 0.00999999978 
0.650000036 0.150000006 0.150000006 0 200000 200000 0.00999999978 
0.700000048 0.150000006 0.150000006 0 200000 200000 0.00999999978 
0.75 0.150000006 0.150000006 0 200000 200000 0.00999999978 
0.800000012 0.150000006 0.150000006 0 200000 200000 0.00999999978 
0.850000024 0.150000006 0.150000006 0 200000 200000 0.00999999978 
0.900000036 0.150000006 0.150000006 0 200000 200000 0.00999999978 
0.950000048 0.150000006 0.150000006 0 200000 200000 0.00999999978 
1 0.150000006 0.150000006 0 200000 200000 0.00999999978 
1.04999995 0.150000006 0.150000006 0 200000 200000 0.00999999978 
1.10000002 0.150000006 0.150000006 0 200000 200000 0.00999999978 
1.14999998 0.150000006 0.150000006 0 200000 200000 0.00999999978 
1.19999993 0.150000006 0.150000006 0 200000 200000 0.00999999978 
1.25 0.150000006 0.150000006 0 200000 200000 0.00999999978 
1.29999995 0.150000006 0.150000006 0 200000 200000 0.00999999978 
1.35000002 0.150000006 0.150000006 0 200000 200000 0.00999999978 
1.39999998 0.150000006 0.150000006 0 200000 200000 0.00999999978 
1.44999993 0.150000006 0.150000006 0 200000 200000 0.00999999978 
1.5 0.150000006 0.150000006 0 200000 200000 0.00999999978 
1.54999995 0.150000006 0.150000006 0 200000 200000 0.00999999978 
1.60000002 0.150000006 0.150000006 0 200000 200000 0.00999999978 
1.64999998 0.150000006 0.150000006 0 200000 200000 0.00999999978 
1.69999993 0.150000006 0.150000006 0 200000 200000 0.00999999978 
1.75 0.150000006 0.150000006 0 200000 200000 0.00999999978 
1.79999995 0.150000006 0.150000006 0 200000 200000 0.00999999978 
1.85000002 0.150000006 0.150000006 0 200000 200000 0.00999999978 
1.89999998 0.150000006 0.150000006 0 200000 200000 0.00999999978 
1.94999993 0.150000006 0.150000006 0 200000 200000 0.00999999978 
2 0.150000006 0.150000006 0 200000 200000 0.00999999978 
2.04999995 0.150000006 0.150000006 0 200000 200000 0.00999999978 
2.0999999 0.150000006 0.150000006 0 200000 200000 0.00999999978 
2.1500001 0.150000006 0.150000006 0 200000 200000 0.00999999978 
2.20000005 0.150000006 0.150000006 0 200000 200000 0.00999999978 
2.25 0.150000006 0.150000006 0 200000 200000 0.00999999978 
2.29999995 0.150000006 0.150000006 0 200000 200000 0.00999999978 
2.3499999 0.150000006 0.150000006 0 200000 200000 0.00999999978 
2.4000001 0.150000006 0.150000006 0 200000 200000 0.00999999978 
2.45000005 0.150000006 0.150000006 0 200000 200000 0.00999999978 
2.5 0.150000006 0.150000006 0 200000 200000 0.00999999978 
2.54999995 0.150000006 0.150000006 0 200000 200000 0.00999999978 
2.5999999 0.150000006 0.150000006 0 200000 200000 0.00999999978 
2.6500001 0.150000006 0.150000006 0 200000 200000 0.00999999978 
2.70000005 0.150000006 0.150000006 0 200000 200000 0.00999999978 
2.75 0.150000006 0.150000006 0 200000 200000 0.00999999978 
2.79999995 0.150000006 0.150000006 0 200000 200000 0.00999999978 
2.8499999 0.150000006 0.150000006 0 200000 200000 0.00999999978 
2.9000001 0.150000006 0.150000006 0 200000 200000 0.00999999978 
2.95000005 0.150000006 0.150000006 0 200000 200000 0.00999999978 
3 0.150000006 0.150000006 0 200000 200000 0.00999999978 
3.04999995 0.150000006 0.150000006 0 200000 200000 0.00999999978 
